<svg xmlns="http://www.w3.org/2000/svg" width="193" height="21" viewBox="0 0 193 21"><defs><clipPath id="7tkta"><path d="M178.79.44h13.82v19.88h-13.82z"/></clipPath><clipPath id="7tktb"><path d="M0 20.995h192.606V.06H0z"/></clipPath></defs><g><g><g><path fill="#003dff" d="M79.172 0v12.523L71.415 0H67v20h3.828V6.931L78.924 20H83V0z"/></g><g><path fill="#003dff" d="M95.842 0L86 21h4.316l7.597-16.213.087-.183-.083-.173z"/></g><g><path fill="#003dff" d="M33.095 0v8.045h-8.19V0H21v20h3.905v-8.175h8.19V20H37V0z"/></g><g><path fill="#003dff" d="M98 12l3.753 8H106l-3.752-8z"/></g><g><path fill="#003dff" d="M45.715 0H42v20h14v-3.778H45.715v-4.397h7.642v-3.78h-7.642V3.78H56V0z"/></g><g><path fill="#003dff" d="M0 0v3.779h6.047V20h3.906V3.779H16V0z"/></g><g><path fill="#003dff" d="M150.685 0l-7.6 16.214-.085.182.081.174L145.16 21 155 0z"/></g><g><path fill="#003dff" d="M163.764 0H160v20h14v-3.778h-10.236v-4.397h7.742v-3.78h-7.742V3.78H174V0z"/></g><g><g><g/><g clip-path="url(#7tkta)"><path fill="#003dff" d="M187.96 8.901l-3.235-.863c-1.36-.343-2.05-1.016-2.05-2.002 0-.675.26-1.195.774-1.543.504-.343 1.189-.516 2.036-.516.711 0 1.37.167 1.958.498.575.323.95.792 1.117 1.395h3.754c-.237-1.618-.945-2.935-2.102-3.919C189.032.948 187.46.44 185.542.44c-1.846 0-3.408.486-4.646 1.443-1.23.954-1.854 2.352-1.854 4.153 0 1.424.38 2.644 1.132 3.626.752.982 1.877 1.675 3.345 2.058l3.35.89c1.398.363 2.107 1.083 2.107 2.14 0 .678-.27 1.193-.807 1.533-.52.332-1.233.5-2.117.5-.961 0-1.768-.254-2.395-.756-.613-.489-.986-1.152-1.112-1.972h-3.755c.11 1.877.815 3.401 2.096 4.532 1.303 1.15 3.041 1.733 5.166 1.733 2.108 0 3.746-.494 4.869-1.47 1.122-.971 1.69-2.35 1.69-4.1 0-3.06-1.565-5.029-4.65-5.849"/></g></g><g><path fill="#003dff" d="M139.921.75h-4.281l3.782 7.872h4.282z"/></g><g><path fill="#003dff" d="M106.82 4.447h5.835v15.87h3.768V4.448h5.835V.75H106.82z"/></g><g/><g clip-path="url(#7tktb)"><path fill="#003dff" d="M127.22 20.318h3.602V.75h-3.602z"/></g></g></g></g></svg>