<?xml version="1.0" encoding="UTF-8"?>
<svg width="193px" height="21px" viewBox="0 0 193 21" version="1.1" xmlns="http://www.w3.org/2000/svg" xmlns:xlink="http://www.w3.org/1999/xlink">
    <!-- Generator: Sketch 57.1 (83088) - https://sketch.com -->
    <title>Group 2</title>
    <desc>Created with Sketch.</desc>
    <g id="RELEASE" stroke="none" stroke-width="1" fill="none" fill-rule="evenodd">
        <g id="Desktop-HD-Copy" transform="translate(-138.000000, -755.000000)">
            <g id="Group-2" transform="translate(138.000000, 755.000000)">
                <path d="M187.96,8.901 L184.725,8.038 C183.365,7.695 182.675,7.022 182.675,6.036 C182.675,5.361 182.935,4.841 183.449,4.493 C183.953,4.15 184.638,3.977 185.485,3.977 C186.196,3.977 186.855,4.144 187.443,4.475 C188.018,4.798 188.393,5.267 188.56,5.87 L192.314,5.87 C192.077,4.252 191.369,2.935 190.212,1.951 C189.032,0.948 187.46,0.44 185.542,0.44 C183.696,0.44 182.134,0.926 180.896,1.883 C179.666,2.837 179.042,4.235 179.042,6.036 C179.042,7.46 179.422,8.68 180.174,9.662 C180.926,10.644 182.051,11.337 183.519,11.72 L186.869,12.61 C188.267,12.973 188.976,13.693 188.976,14.75 C188.976,15.428 188.706,15.943 188.169,16.283 C187.649,16.615 186.936,16.783 186.052,16.783 C185.091,16.783 184.284,16.529 183.657,16.027 C183.044,15.538 182.671,14.875 182.545,14.055 L178.79,14.055 C178.9,15.932 179.605,17.456 180.886,18.587 C182.189,19.737 183.927,20.32 186.052,20.32 C188.16,20.32 189.798,19.826 190.921,18.85 C192.043,17.879 192.611,16.5 192.611,14.75 C192.611,11.69 191.046,9.721 187.961,8.901" id="Path" fill="#FFFFFF" fill-rule="nonzero"></path>
                <polygon id="Path" fill="#FFFFFF" fill-rule="nonzero" points="139.921 0.75 135.64 0.75 139.422 8.622 143.704 8.622"></polygon>
                <polygon id="Path" fill="#FFFFFF" fill-rule="nonzero" points="106.82 4.447 112.655 4.447 112.655 20.317 116.423 20.317 116.423 4.448 122.258 4.448 122.258 0.75 106.82 0.75"></polygon>
                <polygon id="Path" fill="#FFFFFF" fill-rule="nonzero" points="127.22 20.318 130.822 20.318 130.822 0.75 127.22 0.75"></polygon>
                <polygon id="Path" fill="#FFFFFF" fill-rule="nonzero" points="79.172 0 79.172 12.523 71.415 0 67 0 67 20 70.828 20 70.828 6.931 78.924 20 83 20 83 0"></polygon>
                <polygon id="Path" fill="#FFFFFF" fill-rule="nonzero" points="95.842 0 86 21 90.316 21 97.913 4.787 98 4.604 97.917 4.431"></polygon>
                <polygon id="Path" fill="#FFFFFF" fill-rule="nonzero" points="33.095 0 33.095 8.045 24.905 8.045 24.905 0 21 0 21 20 24.905 20 24.905 11.825 33.095 11.825 33.095 20 37 20 37 0"></polygon>
                <polygon id="Path" fill="#FFFFFF" fill-rule="nonzero" points="98 12 101.753 20 106 20 102.248 12"></polygon>
                <polygon id="Path" fill="#FFFFFF" fill-rule="nonzero" points="45.715 0 42 0 42 20 56 20 56 16.222 45.715 16.222 45.715 11.825 53.357 11.825 53.357 8.045 45.715 8.045 45.715 3.78 56 3.78 56 0"></polygon>
                <polygon id="Path" fill="#FFFFFF" fill-rule="nonzero" points="0 0 0 3.779 6.047 3.779 6.047 20 9.953 20 9.953 3.779 16 3.779 16 0"></polygon>
                <polygon id="Path" fill="#FFFFFF" fill-rule="nonzero" points="150.685 0 143.085 16.214 143 16.396 143.081 16.57 145.16 21 155 0"></polygon>
                <polygon id="Path" fill="#FFFFFF" fill-rule="nonzero" points="163.764 0 160 0 160 20 174 20 174 16.222 163.764 16.222 163.764 11.825 171.506 11.825 171.506 8.045 163.764 8.045 163.764 3.78 174 3.78 174 0"></polygon>
                <g id="Group" transform="translate(127.000000, 0.000000)"></g>
            </g>
        </g>
    </g>
</svg>